<?xml version="1.0" encoding="utf-8"?>
<!-- Generator: Adobe Illustrator 24.1.0, SVG Export Plug-In . SVG Version: 6.00 Build 0)  -->
<svg version="1.1" id="Layer_1" xmlns="http://www.w3.org/2000/svg" xmlns:xlink="http://www.w3.org/1999/xlink" x="0px" y="0px"
	 viewBox="0 0 210 85.3" style="enable-background:new 0 0 210 85.3;" xml:space="preserve">
<style type="text/css">
	.st0{fill:#65A9D7;}
	.st1{fill:#3E779D;}
	.st2{fill:#231F20;}
	.st3{font-family:'Helvetica-Bold';}
	.st4{font-size:60.4362px;}
</style>
<path class="st0" d="M100.2,26.3l8.5-23.5L98.3,0l-4.8,24.5C95.8,24.9,98,25.5,100.2,26.3L100.2,26.3z"/>
<path class="st1" d="M111.3,32l11.4-15.7l-9-5.6l-8.8,17.6C107.2,29.4,109.3,30.6,111.3,32L111.3,32z"/>
<path class="st2" d="M131.7,31.6l-6.3-6.9l-9.9,10.6c1.8,1.6,3.4,3.3,4.9,5.1L131.7,31.6L131.7,31.6L131.7,31.6z"/>
<path class="st1" d="M87.9,23.8l1.3-20.1L79,3.6l1.9,20.3c0.9-0.1,1.8-0.1,2.8-0.2C85.1,23.7,86.5,23.7,87.9,23.8L87.9,23.8
	L87.9,23.8z"/>
<path class="st2" d="M75.6,24.7L72.2,9.4L63,12.2l5.8,14.5C71,25.8,73.3,25.2,75.6,24.7L75.6,24.7L75.6,24.7z"/>
<text transform="matrix(1.0083 0 0 1 4.882812e-04 75.375)" class="st1 st3 st4">Façade</text>
</svg>
